<svg version="1.1" id="Layer_1" xmlns="http://www.w3.org/2000/svg" xmlns:xlink="http://www.w3.org/1999/xlink" x="0px" y="0px"
	 width="100%" viewBox="0 0 606 124" enable-background="new 0 0 606 124" xml:space="preserve">
<path fill="#EFF3F8" opacity="1.000000" stroke="none" 
	d="
M425.000000,125.000000 
	C283.381683,125.000000 142.263351,125.000000 1.072509,125.000000 
	C1.072509,83.729263 1.072509,42.458374 1.072509,1.093740 
	C202.999985,1.093740 404.999969,1.093740 606.968811,1.093740 
	C606.968811,42.403236 606.968811,83.701630 606.968811,125.000000 
	C546.458435,125.000000 485.979218,125.000000 425.000000,125.000000 
M208.938416,56.500000 
	C208.937927,43.500889 208.968964,30.501652 208.918137,17.502739 
	C208.902496,13.500859 208.100693,9.668220 203.740768,8.182818 
	C198.623734,6.439481 194.110123,10.214852 194.038239,16.366972 
	C193.909729,27.364763 194.020920,38.365170 193.989670,49.364357 
	C193.973541,55.039295 193.017059,56.004097 187.224335,56.015228 
	C169.725555,56.048851 152.226624,56.044003 134.727814,56.018921 
	C128.923233,56.010605 127.970772,55.078609 127.949684,49.387268 
	C127.911400,39.054749 127.994034,28.721445 127.892387,18.389786 
	C127.871490,16.266232 127.624718,14.005898 126.854507,12.056566 
	C125.040993,7.466737 119.139961,6.159859 115.772141,9.776332 
	C114.253036,11.407599 113.099815,14.092643 113.087631,16.306770 
	C112.916161,47.470455 112.961861,78.635391 112.995331,109.799980 
	C112.996910,111.270844 112.848419,113.269608 113.685539,114.105652 
	C115.629601,116.047241 117.961845,118.339561 120.454124,118.810646 
	C123.767792,119.436974 126.503960,117.286453 127.258911,113.621819 
	C127.624344,111.847916 127.899155,110.019478 127.909035,108.214066 
	C127.968315,97.381760 128.053894,86.547173 127.884254,75.717209 
	C127.812569,71.140831 129.364456,68.974739 134.220657,69.012024 
	C151.885132,69.147652 169.551346,69.032516 187.216705,69.084824 
	C192.788544,69.101326 193.976898,70.356453 193.990265,75.853271 
	C194.018234,87.352448 193.947510,98.852104 194.026093,110.350815 
	C194.061127,115.476250 196.903839,118.781349 201.137909,119.013313 
	C205.361603,119.244728 208.376175,116.164902 208.891418,110.994186 
	C209.023041,109.673264 208.937042,108.329842 208.937195,106.996758 
	C208.939041,90.497841 208.938309,73.998917 208.938416,56.500000 
M261.617218,105.298477 
	C252.139328,105.290871 252.138901,105.290871 252.138519,95.920456 
	C252.138245,89.421127 252.240707,82.919685 252.105423,76.423187 
	C252.009659,71.825012 253.847641,69.749260 258.625580,69.827065 
	C269.454895,70.003410 280.289185,69.911270 291.121216,69.867836 
	C297.294342,69.843079 300.108978,67.678780 300.233307,63.046955 
	C300.354065,58.548561 297.289062,56.088692 291.311646,56.063908 
	C280.646271,56.019688 269.980499,56.070145 259.315033,56.043461 
	C253.245743,56.028275 252.168976,54.910603 252.143936,48.693714 
	C252.119110,42.527782 252.136856,36.361675 252.138763,30.195646 
	C252.141312,21.963043 252.893097,21.229345 261.380188,21.225159 
	C272.045746,21.219894 282.711304,21.233252 293.376862,21.220013 
	C298.875732,21.213188 304.375580,21.220583 309.873077,21.119785 
	C314.131866,21.041697 316.442688,18.419405 316.494049,14.505951 
	C316.546631,10.500735 314.054688,8.115770 309.893311,7.842377 
	C308.896912,7.776914 307.894958,7.779013 306.895538,7.778842 
	C287.064240,7.775453 267.232941,7.761926 247.401688,7.783484 
	C239.639648,7.791923 237.226456,10.142829 237.217789,17.885569 
	C237.183823,48.215729 237.181046,78.545982 237.219742,108.876129 
	C237.229660,116.655777 239.680756,119.116348 247.264313,119.127602 
	C267.262207,119.157272 287.260162,119.140427 307.258087,119.131485 
	C308.422699,119.130966 309.603058,119.140366 310.748871,118.966179 
	C314.439972,118.405060 316.412170,115.930321 316.506287,112.472458 
	C316.600464,109.009636 314.887268,106.368973 311.031189,105.914948 
	C308.722687,105.643135 306.399780,105.334526 304.082245,105.325401 
	C290.250549,105.270897 276.418549,105.298782 261.617218,105.298477 
M551.286621,105.591179 
	C544.530762,103.245552 538.611328,99.867279 535.006958,93.270348 
	C534.266174,91.914520 532.681274,90.192261 531.405823,90.123840 
	C528.506287,89.968323 524.935059,89.891243 522.849609,91.428055 
	C521.486267,92.432709 521.122803,97.087944 522.270996,98.771805 
	C525.569336,103.608810 529.192505,108.726868 533.891846,112.013054 
	C548.798523,122.437164 565.347839,123.248138 581.993713,117.001373 
	C605.503662,108.178696 606.050171,84.640495 597.900452,71.548904 
	C591.914612,61.933254 582.298645,58.108734 571.694092,56.012661 
	C564.219055,54.535152 556.594116,53.385773 549.415344,50.965260 
	C542.758545,48.720749 539.169373,43.158138 539.145813,35.926037 
	C539.124146,29.276794 542.999146,24.469301 550.597839,21.934877 
	C563.727783,17.555571 579.794556,19.177202 587.953369,33.206470 
	C590.259583,37.172062 595.194641,38.177349 598.299622,35.784580 
	C601.862549,33.038929 601.738159,29.463051 599.547119,26.001680 
	C594.149109,17.473980 587.198853,10.627098 577.135620,8.043792 
	C564.456848,4.789081 551.976562,5.893540 540.215210,11.689855 
	C522.966736,20.190382 519.243958,40.553581 532.086304,54.801643 
	C538.794739,62.244347 547.719543,65.075287 557.135498,67.070267 
	C563.916321,68.506935 570.961426,69.534264 577.250671,72.231781 
	C584.452209,75.320602 588.459290,81.683052 587.838501,89.886391 
	C587.223267,98.015846 581.980835,102.524376 574.679688,105.123825 
	C567.203613,107.785561 559.665405,107.608231 551.286621,105.591179 
M404.606628,109.096222 
	C416.669189,97.738541 416.066833,73.208824 399.257446,62.480743 
	C392.095581,57.909878 384.068726,55.985828 375.711945,55.004353 
	C368.609772,54.170223 361.493469,53.202831 355.559052,48.567909 
	C346.636993,41.599552 347.713104,28.563894 357.672791,23.332298 
	C372.145691,15.730005 387.827301,19.456553 397.868835,32.884369 
	C400.742676,36.727364 405.129425,38.057121 408.233521,36.026245 
	C411.594055,33.827595 412.461639,29.466225 409.428375,25.460535 
	C406.146576,21.126690 402.665924,16.513695 398.248260,13.546792 
	C382.228668,2.788018 365.187317,4.017758 349.021149,12.639583 
	C331.500275,21.983913 329.732574,43.959820 344.647797,57.102921 
	C351.200958,62.877487 359.214417,65.412331 367.683533,67.114952 
	C374.784729,68.542580 382.074768,70.011856 388.622620,72.936996 
	C395.269806,75.906540 398.424683,82.165901 398.034149,89.736290 
	C397.677643,96.647705 393.747955,100.949951 387.794281,103.889923 
	C372.954224,111.218094 355.322388,106.766159 345.317688,93.141235 
	C344.452942,91.963615 343.238403,90.275169 342.107452,90.210793 
	C339.210144,90.045891 335.906036,89.928795 333.433716,91.148674 
	C330.156189,92.765854 330.577393,96.179955 332.375092,98.970955 
	C334.432281,102.164841 336.407349,105.572548 339.112457,108.161980 
	C356.083984,124.407616 386.244202,124.976646 404.606628,109.096222 
M479.892181,66.421753 
	C489.862152,51.086063 499.881439,35.782055 509.773041,20.395973 
	C512.866577,15.584006 512.407471,11.087547 509.007111,8.829608 
	C505.320435,6.381566 501.213348,7.958998 497.948608,13.095353 
	C488.760406,27.551001 479.600677,42.024830 470.382324,56.461243 
	C466.384857,62.721466 463.873993,62.742821 459.967163,56.568203 
	C450.984680,42.371723 442.105682,28.109390 433.047302,13.961761 
	C431.657928,11.791815 429.809570,8.983054 427.684875,8.461884 
	C425.241852,7.862638 421.598969,8.691824 419.655090,10.312942 
	C416.551483,12.901301 417.568634,16.594624 419.635712,19.811403 
	C431.144165,37.720867 442.760742,55.563255 454.017761,73.629562 
	C455.906036,76.660072 456.933380,80.638168 457.113251,84.240593 
	C457.552917,93.045242 457.118652,101.889633 457.321411,110.711464 
	C457.444519,116.068687 460.343506,119.068459 464.652466,119.054466 
	C469.344269,119.039230 471.982330,116.041130 472.057648,110.401581 
	C472.137695,104.407333 472.526123,98.369629 471.975708,92.425369 
	C471.087494,82.833420 473.030670,74.322739 479.892181,66.421753 
M44.004822,95.498299 
	C44.005512,100.163445 43.925632,104.830345 44.026798,109.493309 
	C44.160633,115.662186 46.986122,118.988457 51.897648,118.991432 
	C56.426888,118.994179 58.994270,115.614296 58.995876,109.577919 
	C59.002964,82.919685 58.995762,56.261456 59.001160,29.603226 
	C59.002602,22.472633 60.397251,21.042696 67.344345,21.030569 
	C74.675331,21.017771 82.007095,21.087208 89.337105,21.000828 
	C93.938957,20.946598 96.154228,18.636005 96.028580,14.260082 
	C95.905243,9.965194 93.585518,7.970305 89.355431,7.971911 
	C64.196732,7.981465 39.037987,7.951817 13.879372,7.998114 
	C9.131098,8.006851 6.951981,10.207349 6.973097,14.536133 
	C6.994359,18.894512 9.122664,20.958708 13.948731,21.004955 
	C21.612282,21.078394 29.277351,20.984028 36.941158,21.042269 
	C42.862404,21.087267 43.994999,22.232233 43.998753,28.020082 
	C44.013111,50.179729 44.004726,72.339386 44.004822,95.498299 
z"/>
<path fill="#A1B6D7" opacity="1.000000" stroke="none" 
	d="
M208.938324,57.000000 
	C208.938309,73.998917 208.939041,90.497841 208.937195,106.996758 
	C208.937042,108.329842 209.023041,109.673264 208.891418,110.994186 
	C208.376175,116.164902 205.361603,119.244728 201.137909,119.013313 
	C196.903839,118.781349 194.061127,115.476250 194.026093,110.350815 
	C193.947510,98.852104 194.018234,87.352448 193.990265,75.853271 
	C193.976898,70.356453 192.788544,69.101326 187.216705,69.084824 
	C169.551346,69.032516 151.885132,69.147652 134.220657,69.012024 
	C129.364456,68.974739 127.812569,71.140831 127.884254,75.717209 
	C128.053894,86.547173 127.968315,97.381760 127.909035,108.214066 
	C127.899155,110.019478 127.624344,111.847916 127.258911,113.621819 
	C126.503960,117.286453 123.767792,119.436974 120.454124,118.810646 
	C117.961845,118.339561 115.629601,116.047241 113.685539,114.105652 
	C112.848419,113.269608 112.996910,111.270844 112.995331,109.799980 
	C112.961861,78.635391 112.916161,47.470455 113.087631,16.306770 
	C113.099815,14.092643 114.253036,11.407599 115.772141,9.776332 
	C119.139961,6.159859 125.040993,7.466737 126.854507,12.056566 
	C127.624718,14.005898 127.871490,16.266232 127.892387,18.389786 
	C127.994034,28.721445 127.911400,39.054749 127.949684,49.387268 
	C127.970772,55.078609 128.923233,56.010605 134.727814,56.018921 
	C152.226624,56.044003 169.725555,56.048851 187.224335,56.015228 
	C193.017059,56.004097 193.973541,55.039295 193.989670,49.364357 
	C194.020920,38.365170 193.909729,27.364763 194.038239,16.366972 
	C194.110123,10.214852 198.623734,6.439481 203.740768,8.182818 
	C208.100693,9.668220 208.902496,13.500859 208.918137,17.502739 
	C208.968964,30.501652 208.937927,43.500889 208.938324,57.000000 
z"/>
<path fill="#6E88AF" opacity="1.000000" stroke="none" 
	d="
M262.101929,105.298752 
	C276.418549,105.298782 290.250549,105.270897 304.082245,105.325401 
	C306.399780,105.334526 308.722687,105.643135 311.031189,105.914948 
	C314.887268,106.368973 316.600464,109.009636 316.506287,112.472458 
	C316.412170,115.930321 314.439972,118.405060 310.748871,118.966179 
	C309.603058,119.140366 308.422699,119.130966 307.258087,119.131485 
	C287.260162,119.140427 267.262207,119.157272 247.264313,119.127602 
	C239.680756,119.116348 237.229660,116.655777 237.219742,108.876129 
	C237.181046,78.545982 237.183823,48.215729 237.217789,17.885569 
	C237.226456,10.142829 239.639648,7.791923 247.401688,7.783484 
	C267.232941,7.761926 287.064240,7.775453 306.895538,7.778842 
	C307.894958,7.779013 308.896912,7.776914 309.893311,7.842377 
	C314.054688,8.115770 316.546631,10.500735 316.494049,14.505951 
	C316.442688,18.419405 314.131866,21.041697 309.873077,21.119785 
	C304.375580,21.220583 298.875732,21.213188 293.376862,21.220013 
	C282.711304,21.233252 272.045746,21.219894 261.380188,21.225159 
	C252.893097,21.229345 252.141312,21.963043 252.138763,30.195646 
	C252.136856,36.361675 252.119110,42.527782 252.143936,48.693714 
	C252.168976,54.910603 253.245743,56.028275 259.315033,56.043461 
	C269.980499,56.070145 280.646271,56.019688 291.311646,56.063908 
	C297.289062,56.088692 300.354065,58.548561 300.233307,63.046955 
	C300.108978,67.678780 297.294342,69.843079 291.121216,69.867836 
	C280.289185,69.911270 269.454895,70.003410 258.625580,69.827065 
	C253.847641,69.749260 252.009659,71.825012 252.105423,76.423187 
	C252.240707,82.919685 252.138245,89.421127 252.138519,95.920456 
	C252.138901,105.290871 252.139328,105.290871 262.101929,105.298752 
z"/>
<path fill="#16396C" opacity="1.000000" stroke="none" 
	d="
M551.673828,105.726288 
	C559.665405,107.608231 567.203613,107.785561 574.679688,105.123825 
	C581.980835,102.524376 587.223267,98.015846 587.838501,89.886391 
	C588.459290,81.683052 584.452209,75.320602 577.250671,72.231781 
	C570.961426,69.534264 563.916321,68.506935 557.135498,67.070267 
	C547.719543,65.075287 538.794739,62.244347 532.086304,54.801643 
	C519.243958,40.553581 522.966736,20.190382 540.215210,11.689855 
	C551.976562,5.893540 564.456848,4.789081 577.135620,8.043792 
	C587.198853,10.627098 594.149109,17.473980 599.547119,26.001680 
	C601.738159,29.463051 601.862549,33.038929 598.299622,35.784580 
	C595.194641,38.177349 590.259583,37.172062 587.953369,33.206470 
	C579.794556,19.177202 563.727783,17.555571 550.597839,21.934877 
	C542.999146,24.469301 539.124146,29.276794 539.145813,35.926037 
	C539.169373,43.158138 542.758545,48.720749 549.415344,50.965260 
	C556.594116,53.385773 564.219055,54.535152 571.694092,56.012661 
	C582.298645,58.108734 591.914612,61.933254 597.900452,71.548904 
	C606.050171,84.640495 605.503662,108.178696 581.993713,117.001373 
	C565.347839,123.248138 548.798523,122.437164 533.891846,112.013054 
	C529.192505,108.726868 525.569336,103.608810 522.270996,98.771805 
	C521.122803,97.087944 521.486267,92.432709 522.849609,91.428055 
	C524.935059,89.891243 528.506287,89.968323 531.405823,90.123840 
	C532.681274,90.192261 534.266174,91.914520 535.006958,93.270348 
	C538.611328,99.867279 544.530762,103.245552 551.673828,105.726288 
z"/>
<path fill="#506E9C" opacity="1.000000" stroke="none" 
	d="
M404.352356,109.350563 
	C386.244202,124.976646 356.083984,124.407616 339.112457,108.161980 
	C336.407349,105.572548 334.432281,102.164841 332.375092,98.970955 
	C330.577393,96.179955 330.156189,92.765854 333.433716,91.148674 
	C335.906036,89.928795 339.210144,90.045891 342.107452,90.210793 
	C343.238403,90.275169 344.452942,91.963615 345.317688,93.141235 
	C355.322388,106.766159 372.954224,111.218094 387.794281,103.889923 
	C393.747955,100.949951 397.677643,96.647705 398.034149,89.736290 
	C398.424683,82.165901 395.269806,75.906540 388.622620,72.936996 
	C382.074768,70.011856 374.784729,68.542580 367.683533,67.114952 
	C359.214417,65.412331 351.200958,62.877487 344.647797,57.102921 
	C329.732574,43.959820 331.500275,21.983913 349.021149,12.639583 
	C365.187317,4.017758 382.228668,2.788018 398.248260,13.546792 
	C402.665924,16.513695 406.146576,21.126690 409.428375,25.460535 
	C412.461639,29.466225 411.594055,33.827595 408.233521,36.026245 
	C405.129425,38.057121 400.742676,36.727364 397.868835,32.884369 
	C387.827301,19.456553 372.145691,15.730005 357.672791,23.332298 
	C347.713104,28.563894 346.636993,41.599552 355.559052,48.567909 
	C361.493469,53.202831 368.609772,54.170223 375.711945,55.004353 
	C384.068726,55.985828 392.095581,57.909878 399.257446,62.480743 
	C416.066833,73.208824 416.669189,97.738541 404.352356,109.350563 
z"/>
<path fill="#436398" opacity="1.000000" stroke="none" 
	d="
M479.695892,66.724861 
	C473.030670,74.322739 471.087494,82.833420 471.975708,92.425369 
	C472.526123,98.369629 472.137695,104.407333 472.057648,110.401581 
	C471.982330,116.041130 469.344269,119.039230 464.652466,119.054466 
	C460.343506,119.068459 457.444519,116.068687 457.321411,110.711464 
	C457.118652,101.889633 457.552917,93.045242 457.113251,84.240593 
	C456.933380,80.638168 455.906036,76.660072 454.017761,73.629562 
	C442.760742,55.563255 431.144165,37.720867 419.635712,19.811403 
	C417.568634,16.594624 416.551483,12.901301 419.655090,10.312942 
	C421.598969,8.691824 425.241852,7.862638 427.684875,8.461884 
	C429.809570,8.983054 431.657928,11.791815 433.047302,13.961761 
	C442.105682,28.109390 450.984680,42.371723 459.967163,56.568203 
	C463.873993,62.742821 466.384857,62.721466 470.382324,56.461243 
	C479.600677,42.024830 488.760406,27.551001 497.948608,13.095353 
	C501.213348,7.958998 505.320435,6.381566 509.007111,8.829608 
	C512.407471,11.087547 512.866577,15.584006 509.773041,20.395973 
	C499.881439,35.782055 489.862152,51.086063 479.695892,66.724861 
z"/>
<path fill="#C6D4E7" opacity="1.000000" stroke="none" 
	d="
M44.004829,94.998672 
	C44.004726,72.339386 44.013111,50.179729 43.998753,28.020082 
	C43.994999,22.232233 42.862404,21.087267 36.941158,21.042269 
	C29.277351,20.984028 21.612282,21.078394 13.948731,21.004955 
	C9.122664,20.958708 6.994359,18.894512 6.973097,14.536133 
	C6.951981,10.207349 9.131098,8.006851 13.879372,7.998114 
	C39.037987,7.951817 64.196732,7.981465 89.355431,7.971911 
	C93.585518,7.970305 95.905243,9.965194 96.028580,14.260082 
	C96.154228,18.636005 93.938957,20.946598 89.337105,21.000828 
	C82.007095,21.087208 74.675331,21.017771 67.344345,21.030569 
	C60.397251,21.042696 59.002602,22.472633 59.001160,29.603226 
	C58.995762,56.261456 59.002964,82.919685 58.995876,109.577919 
	C58.994270,115.614296 56.426888,118.994179 51.897648,118.991432 
	C46.986122,118.988457 44.160633,115.662186 44.026798,109.493309 
	C43.925632,104.830345 44.005512,100.163445 44.004829,94.998672 
z"/>
</svg>