<svg version="1.1" id="Layer_1" xmlns="http://www.w3.org/2000/svg" xmlns:xlink="http://www.w3.org/1999/xlink" x="0px" y="0px"
	 width="100%" viewBox="0 0 580 114" enable-background="new 0 0 580 114" xml:space="preserve">
<path fill="#FEFEFE" opacity="1.000000" stroke="none" 
	d="
M396.000000,115.000000 
	C264.000000,115.000000 132.500000,115.000000 1.000000,115.000000 
	C1.000000,77.000000 1.000000,39.000000 1.000000,1.000000 
	C194.333328,1.000000 387.666656,1.000000 581.000000,1.000000 
	C581.000000,39.000000 581.000000,77.000000 581.000000,115.000000 
	C519.500000,115.000000 458.000000,115.000000 396.000000,115.000000 
M172.402832,49.966946 
	C157.077072,49.966789 141.750427,49.874397 126.426079,50.021721 
	C121.725143,50.066921 119.839096,48.286644 119.932487,43.521992 
	C120.138115,33.031296 120.074707,22.532822 119.955864,12.039392 
	C119.900574,7.158263 116.943924,4.009048 112.902969,4.009559 
	C108.846222,4.010073 105.997673,7.177295 105.991005,12.063393 
	C105.950096,42.048367 105.950981,72.033455 106.019333,102.018333 
	C106.022919,103.586853 106.269432,105.874474 107.274284,106.572060 
	C109.402618,108.049629 112.241447,109.746056 114.545181,109.450813 
	C118.446472,108.950859 120.004692,105.551270 119.999123,101.621284 
	C119.983551,90.626801 120.070534,79.631523 119.960609,68.638130 
	C119.916855,64.262581 121.773239,62.111004 126.167847,62.114796 
	C142.826187,62.129173 159.485001,62.050735 176.142609,62.161335 
	C181.739975,62.198502 182.976990,63.705765 182.994308,69.545990 
	C183.025452,80.040657 182.967834,90.535660 183.019073,101.030167 
	C183.044937,106.328323 185.732986,109.749138 189.800064,109.914551 
	C194.053665,110.087555 196.976318,106.555496 196.982132,100.955864 
	C197.012589,71.637199 197.013000,42.318470 196.980942,12.999811 
	C196.974976,7.536379 194.332947,4.076165 190.376984,4.023733 
	C185.784866,3.962869 183.020584,7.383070 183.009186,13.229280 
	C182.989044,23.557419 182.944962,33.886101 183.030945,44.213554 
	C183.063995,48.182129 181.396683,50.143127 177.363358,49.974426 
	C176.033020,49.918781 174.698395,49.966454 172.402832,49.966946 
M246.680481,96.937531 
	C238.564011,96.914589 238.147247,96.508675 238.139297,88.544304 
	C238.133316,82.548409 238.120163,76.552429 238.142990,70.556610 
	C238.168259,63.923626 239.074570,63.012096 245.563232,63.001888 
	C256.055908,62.985378 266.549316,63.046974 277.040833,62.930412 
	C281.052277,62.885845 283.800140,60.814758 283.959290,56.622196 
	C284.124207,52.276302 281.172241,50.529388 277.307312,50.049984 
	C275.828278,49.866528 274.314117,49.942711 272.815918,49.941467 
	C263.322418,49.933571 253.826080,49.800179 244.336609,49.995846 
	C239.729889,50.090832 238.049088,48.025963 238.113953,43.695927 
	C238.211243,37.201832 238.110870,30.705036 238.146225,24.209669 
	C238.180099,17.987930 239.218628,16.950045 245.386551,16.943830 
	C260.709412,16.928394 276.032379,16.971302 291.355072,16.920103 
	C296.677765,16.902317 299.152710,14.854122 299.265381,10.695834 
	C299.385132,6.275557 296.882965,3.989801 291.328949,3.969465 
	C271.675964,3.897505 252.022385,3.891330 232.369507,3.973817 
	C226.794449,3.997217 224.102463,6.726148 224.090881,12.343867 
	C224.030090,41.823597 224.025681,71.303596 224.090042,100.783302 
	C224.104797,107.541718 226.708862,109.941437 233.637253,109.987762 
	C241.631439,110.041214 249.626251,110.000923 257.620789,110.000443 
	C268.946381,109.999756 280.272614,110.070297 291.597290,109.967987 
	C297.637787,109.913406 300.843018,105.949348 298.940002,101.014114 
	C297.473114,97.209915 294.044678,96.946129 290.610901,96.944153 
	C276.287354,96.935921 261.963837,96.938713 246.680481,96.937531 
M564.565491,15.947385 
	C563.074585,14.387974 561.729431,12.649611 560.069702,11.297396 
	C546.748596,0.444515 531.879456,1.040639 516.652466,5.891931 
	C504.789764,9.671367 497.757629,18.092363 497.355835,29.252628 
	C496.924744,41.226307 502.353424,50.505020 513.280945,55.129784 
	C521.107605,58.442192 529.745422,59.946671 538.117615,61.829895 
	C545.937622,63.588921 552.731018,66.625778 556.109924,74.385529 
	C560.645142,84.800804 554.290833,95.348198 541.470825,97.574570 
	C527.808228,99.947289 515.213440,98.174767 506.989441,84.890045 
	C504.742859,81.260979 500.188904,80.269638 496.959778,82.213959 
	C492.817963,84.707779 493.147217,88.153694 495.389679,91.609772 
	C497.268341,94.505157 499.192108,97.543701 501.728546,99.811195 
	C515.661011,112.266205 538.698303,114.960793 555.478210,106.366936 
	C572.938843,97.424446 577.000183,73.404060 563.168396,59.891212 
	C555.951660,52.840828 546.673401,50.499245 536.966492,48.944263 
	C530.821350,47.959858 524.388000,46.717323 518.932556,43.929661 
	C508.778259,38.740887 508.453766,25.109938 517.729736,19.363901 
	C527.727234,13.170899 544.070740,14.476406 552.686218,22.359602 
	C554.744202,24.242632 556.222656,26.750755 558.022583,28.925922 
	C560.643921,32.093777 563.997437,32.765285 567.337952,30.587271 
	C570.704956,28.392004 570.663330,25.015064 568.805847,21.757374 
	C567.743347,19.893856 566.296936,18.249203 564.565491,15.947385 
M364.037628,17.031336 
	C368.363220,20.768734 372.908417,24.285889 376.946075,28.312054 
	C380.275757,31.632309 384.139771,32.940704 387.015015,30.482018 
	C390.458405,27.537491 389.854950,24.021147 387.673737,20.650860 
	C386.323853,18.565159 384.716217,16.635506 383.123932,14.719176 
	C371.064362,0.205501 348.701599,0.336396 333.785461,6.844499 
	C316.787384,14.260953 311.434265,32.867210 322.206055,46.709988 
	C328.343933,54.597736 337.015472,58.116436 346.525818,60.112091 
	C353.316589,61.537060 360.341217,62.543373 366.705017,65.114014 
	C373.216705,67.744370 376.983398,73.426323 377.027466,80.857811 
	C377.067200,87.554451 373.704132,92.399727 367.855927,95.144699 
	C358.353790,99.604744 348.578308,99.628250 338.826416,95.693108 
	C333.379913,93.495300 329.435791,89.724075 326.347534,84.703339 
	C323.997925,80.883514 319.888092,80.175858 316.353607,82.394958 
	C312.559509,84.777031 312.587006,87.992310 314.859192,91.370926 
	C316.700439,94.108749 318.443268,97.031158 320.788574,99.292007 
	C333.943146,111.972992 357.329926,115.105598 374.394958,106.558739 
	C385.562103,100.965782 391.385498,91.951393 390.896576,79.303726 
	C390.294403,63.727184 379.026215,52.702774 362.199127,49.874115 
	C353.799103,48.462059 345.363373,46.309536 337.468536,43.171673 
	C331.967651,40.985302 330.395660,35.221405 330.932648,29.230017 
	C331.422668,23.762325 334.725525,20.505232 339.346893,18.408606 
	C347.079620,14.900426 355.104614,14.809442 364.037628,17.031336 
M414.549774,41.967476 
	C419.839142,50.235207 425.330658,58.384014 430.304626,66.837318 
	C431.970917,69.669228 432.983337,73.246651 433.137024,76.537376 
	C433.533081,85.017021 433.125061,93.531052 433.350433,102.023056 
	C433.479858,106.898468 436.644043,110.015976 440.590393,109.917007 
	C444.746979,109.812775 447.215607,106.871773 447.260773,101.674530 
	C447.331696,93.510445 446.967621,85.327774 447.423737,77.188614 
	C447.626740,73.566444 448.641754,69.568100 450.549316,66.533096 
	C461.171539,49.632519 472.210144,32.994137 483.038666,16.222391 
	C486.174652,11.365221 485.717499,7.016087 482.108429,4.781240 
	C478.666718,2.650025 475.088470,4.166831 471.947449,9.111345 
	C463.295258,22.731400 454.641296,36.350365 446.005096,49.980587 
	C442.167511,56.037319 439.286926,56.043201 435.524170,50.054062 
	C426.762543,36.108093 418.014252,22.153053 409.137451,8.280486 
	C406.205963,3.699163 402.323730,2.723312 398.659332,5.182288 
	C395.293549,7.440875 394.922211,11.232363 397.754608,15.704555 
	C403.185028,24.278923 408.671478,32.817818 414.549774,41.967476 
M54.951370,92.458527 
	C54.951408,69.474037 54.945019,46.489540 54.955879,23.505053 
	C54.958679,17.579563 55.519886,17.024410 61.576187,16.994963 
	C68.238220,16.962570 74.900665,17.012794 81.562683,16.979652 
	C87.428139,16.950474 89.983337,14.869485 90.017670,10.197329 
	C90.048149,6.048384 87.367302,4.006370 81.629433,4.000018 
	C58.978012,3.974941 36.326546,3.978345 13.675114,3.996736 
	C7.533885,4.001722 5.012970,5.890773 4.961498,10.376487 
	C4.908977,14.953580 7.422854,16.946062 13.442929,16.978424 
	C20.438028,17.016031 27.446793,17.249683 34.423962,16.894339 
	C38.865505,16.668129 40.395920,18.864408 40.843670,22.606239 
	C41.020721,24.085890 40.933319,25.599495 40.933582,27.097645 
	C40.937916,52.080853 40.987759,77.064270 40.887218,102.047073 
	C40.870544,106.189598 42.604046,109.136932 46.423607,109.732162 
	C50.454845,110.360374 53.573685,108.217018 54.174831,103.823769 
	C54.644497,100.391373 54.707527,96.903320 54.951370,92.458527 
z"/>
<path fill="#A0B5D6" opacity="1.000000" stroke="none" 
	d="
M172.884277,49.966915 
	C174.698395,49.966454 176.033020,49.918781 177.363358,49.974426 
	C181.396683,50.143127 183.063995,48.182129 183.030945,44.213554 
	C182.944962,33.886101 182.989044,23.557419 183.009186,13.229280 
	C183.020584,7.383070 185.784866,3.962869 190.376984,4.023733 
	C194.332947,4.076165 196.974976,7.536379 196.980942,12.999811 
	C197.013000,42.318470 197.012589,71.637199 196.982132,100.955864 
	C196.976318,106.555496 194.053665,110.087555 189.800064,109.914551 
	C185.732986,109.749138 183.044937,106.328323 183.019073,101.030167 
	C182.967834,90.535660 183.025452,80.040657 182.994308,69.545990 
	C182.976990,63.705765 181.739975,62.198502 176.142609,62.161335 
	C159.485001,62.050735 142.826187,62.129173 126.167847,62.114796 
	C121.773239,62.111004 119.916855,64.262581 119.960609,68.638130 
	C120.070534,79.631523 119.983551,90.626801 119.999123,101.621284 
	C120.004692,105.551270 118.446472,108.950859 114.545181,109.450813 
	C112.241447,109.746056 109.402618,108.049629 107.274284,106.572060 
	C106.269432,105.874474 106.022919,103.586853 106.019333,102.018333 
	C105.950981,72.033455 105.950096,42.048367 105.991005,12.063393 
	C105.997673,7.177295 108.846222,4.010073 112.902969,4.009559 
	C116.943924,4.009048 119.900574,7.158263 119.955864,12.039392 
	C120.074707,22.532822 120.138115,33.031296 119.932487,43.521992 
	C119.839096,48.286644 121.725143,50.066921 126.426079,50.021721 
	C141.750427,49.874397 157.077072,49.966789 172.884277,49.966915 
z"/>
<path fill="#6D86AE" opacity="1.000000" stroke="none" 
	d="
M247.160385,96.937500 
	C261.963837,96.938713 276.287354,96.935921 290.610901,96.944153 
	C294.044678,96.946129 297.473114,97.209915 298.940002,101.014114 
	C300.843018,105.949348 297.637787,109.913406 291.597290,109.967987 
	C280.272614,110.070297 268.946381,109.999756 257.620789,110.000443 
	C249.626251,110.000923 241.631439,110.041214 233.637253,109.987762 
	C226.708862,109.941437 224.104797,107.541718 224.090042,100.783302 
	C224.025681,71.303596 224.030090,41.823597 224.090881,12.343867 
	C224.102463,6.726148 226.794449,3.997217 232.369507,3.973817 
	C252.022385,3.891330 271.675964,3.897505 291.328949,3.969465 
	C296.882965,3.989801 299.385132,6.275557 299.265381,10.695834 
	C299.152710,14.854122 296.677765,16.902317 291.355072,16.920103 
	C276.032379,16.971302 260.709412,16.928394 245.386551,16.943830 
	C239.218628,16.950045 238.180099,17.987930 238.146225,24.209669 
	C238.110870,30.705036 238.211243,37.201832 238.113953,43.695927 
	C238.049088,48.025963 239.729889,50.090832 244.336609,49.995846 
	C253.826080,49.800179 263.322418,49.933571 272.815918,49.941467 
	C274.314117,49.942711 275.828278,49.866528 277.307312,50.049984 
	C281.172241,50.529388 284.124207,52.276302 283.959290,56.622196 
	C283.800140,60.814758 281.052277,62.885845 277.040833,62.930412 
	C266.549316,63.046974 256.055908,62.985378 245.563232,63.001888 
	C239.074570,63.012096 238.168259,63.923626 238.142990,70.556610 
	C238.120163,76.552429 238.133316,82.548409 238.139297,88.544304 
	C238.147247,96.508675 238.564011,96.914589 247.160385,96.937500 
z"/>
<path fill="#14376A" opacity="1.000000" stroke="none" 
	d="
M564.794434,16.226694 
	C566.296936,18.249203 567.743347,19.893856 568.805847,21.757374 
	C570.663330,25.015064 570.704956,28.392004 567.337952,30.587271 
	C563.997437,32.765285 560.643921,32.093777 558.022583,28.925922 
	C556.222656,26.750755 554.744202,24.242632 552.686218,22.359602 
	C544.070740,14.476406 527.727234,13.170899 517.729736,19.363901 
	C508.453766,25.109938 508.778259,38.740887 518.932556,43.929661 
	C524.388000,46.717323 530.821350,47.959858 536.966492,48.944263 
	C546.673401,50.499245 555.951660,52.840828 563.168396,59.891212 
	C577.000183,73.404060 572.938843,97.424446 555.478210,106.366936 
	C538.698303,114.960793 515.661011,112.266205 501.728546,99.811195 
	C499.192108,97.543701 497.268341,94.505157 495.389679,91.609772 
	C493.147217,88.153694 492.817963,84.707779 496.959778,82.213959 
	C500.188904,80.269638 504.742859,81.260979 506.989441,84.890045 
	C515.213440,98.174767 527.808228,99.947289 541.470825,97.574570 
	C554.290833,95.348198 560.645142,84.800804 556.109924,74.385529 
	C552.731018,66.625778 545.937622,63.588921 538.117615,61.829895 
	C529.745422,59.946671 521.107605,58.442192 513.280945,55.129784 
	C502.353424,50.505020 496.924744,41.226307 497.355835,29.252628 
	C497.757629,18.092363 504.789764,9.671367 516.652466,5.891931 
	C531.879456,1.040639 546.748596,0.444515 560.069702,11.297396 
	C561.729431,12.649611 563.074585,14.387974 564.794434,16.226694 
z"/>
<path fill="#4F6C9B" opacity="1.000000" stroke="none" 
	d="
M363.635376,16.950417 
	C355.104614,14.809442 347.079620,14.900426 339.346893,18.408606 
	C334.725525,20.505232 331.422668,23.762325 330.932648,29.230017 
	C330.395660,35.221405 331.967651,40.985302 337.468536,43.171673 
	C345.363373,46.309536 353.799103,48.462059 362.199127,49.874115 
	C379.026215,52.702774 390.294403,63.727184 390.896576,79.303726 
	C391.385498,91.951393 385.562103,100.965782 374.394958,106.558739 
	C357.329926,115.105598 333.943146,111.972992 320.788574,99.292007 
	C318.443268,97.031158 316.700439,94.108749 314.859192,91.370926 
	C312.587006,87.992310 312.559509,84.777031 316.353607,82.394958 
	C319.888092,80.175858 323.997925,80.883514 326.347534,84.703339 
	C329.435791,89.724075 333.379913,93.495300 338.826416,95.693108 
	C348.578308,99.628250 358.353790,99.604744 367.855927,95.144699 
	C373.704132,92.399727 377.067200,87.554451 377.027466,80.857811 
	C376.983398,73.426323 373.216705,67.744370 366.705017,65.114014 
	C360.341217,62.543373 353.316589,61.537060 346.525818,60.112091 
	C337.015472,58.116436 328.343933,54.597736 322.206055,46.709988 
	C311.434265,32.867210 316.787384,14.260953 333.785461,6.844499 
	C348.701599,0.336396 371.064362,0.205501 383.123932,14.719176 
	C384.716217,16.635506 386.323853,18.565159 387.673737,20.650860 
	C389.854950,24.021147 390.458405,27.537491 387.015015,30.482018 
	C384.139771,32.940704 380.275757,31.632309 376.946075,28.312054 
	C372.908417,24.285889 368.363220,20.768734 363.635376,16.950417 
z"/>
<path fill="#426398" opacity="1.000000" stroke="none" 
	d="
M414.342224,41.669456 
	C408.671478,32.817818 403.185028,24.278923 397.754608,15.704555 
	C394.922211,11.232363 395.293549,7.440875 398.659332,5.182288 
	C402.323730,2.723312 406.205963,3.699163 409.137451,8.280486 
	C418.014252,22.153053 426.762543,36.108093 435.524170,50.054062 
	C439.286926,56.043201 442.167511,56.037319 446.005096,49.980587 
	C454.641296,36.350365 463.295258,22.731400 471.947449,9.111345 
	C475.088470,4.166831 478.666718,2.650025 482.108429,4.781240 
	C485.717499,7.016087 486.174652,11.365221 483.038666,16.222391 
	C472.210144,32.994137 461.171539,49.632519 450.549316,66.533096 
	C448.641754,69.568100 447.626740,73.566444 447.423737,77.188614 
	C446.967621,85.327774 447.331696,93.510445 447.260773,101.674530 
	C447.215607,106.871773 444.746979,109.812775 440.590393,109.917007 
	C436.644043,110.015976 433.479858,106.898468 433.350433,102.023056 
	C433.125061,93.531052 433.533081,85.017021 433.137024,76.537376 
	C432.983337,73.246651 431.970917,69.669228 430.304626,66.837318 
	C425.330658,58.384014 419.839142,50.235207 414.342224,41.669456 
z"/>
<path fill="#C7D5E7" opacity="1.000000" stroke="none" 
	d="
M54.951309,92.949265 
	C54.707527,96.903320 54.644497,100.391373 54.174831,103.823769 
	C53.573685,108.217018 50.454845,110.360374 46.423607,109.732162 
	C42.604046,109.136932 40.870544,106.189598 40.887218,102.047073 
	C40.987759,77.064270 40.937916,52.080853 40.933582,27.097645 
	C40.933319,25.599495 41.020721,24.085890 40.843670,22.606239 
	C40.395920,18.864408 38.865505,16.668129 34.423962,16.894339 
	C27.446793,17.249683 20.438028,17.016031 13.442929,16.978424 
	C7.422854,16.946062 4.908977,14.953580 4.961498,10.376487 
	C5.012970,5.890773 7.533885,4.001722 13.675114,3.996736 
	C36.326546,3.978345 58.978012,3.974941 81.629433,4.000018 
	C87.367302,4.006370 90.048149,6.048384 90.017670,10.197329 
	C89.983337,14.869485 87.428139,16.950474 81.562683,16.979652 
	C74.900665,17.012794 68.238220,16.962570 61.576187,16.994963 
	C55.519886,17.024410 54.958679,17.579563 54.955879,23.505053 
	C54.945019,46.489540 54.951408,69.474037 54.951309,92.949265 
z"/>
</svg>